<?xml version="1.0"?>
<svg width="400" height="400" xmlns="http://www.w3.org/2000/svg" xmlns:svg="http://www.w3.org/2000/svg">

 <g class="layer">
  <title>Layer 1</title>
  <ellipse cx="200" cy="200.83" fill="#76b4f2" id="svg_2" rx="165.5" ry="165.5" stroke-width="5"/>
  <path d="m231.5,247.8q-33.5,36 -58.4,36q-15.9,0 -29.6,-12.2l0,9.8q0,17 5.2,34.3q6,19 6,25.2q0,8.5 -5.5,14q-5.3,5.6 -13.3,5.6q-8.2,0 -13,-6.5q-4.8,-6.5 -4.8,-15.6q0,-6.6 4.8,-24q5.6,-19.3 5.6,-37.5l0,-167.9l30.5,0l0,109.8q0,16.7 2.7,24.5q3,7.8 10.2,12.8q7.4,4.8 16.7,4.8q16.5,0 42.8,-22.6l0,-129.3l30.8,0l0,128.7q0,16.4 3.3,22.7q3.3,6 11.3,6q12.6,0 16.3,-24.6l6.7,0q-3.5,42 -35.6,42q-13.9,0 -23.2,-9.2q-9,-9.4 -9.6,-26.7l0.1,-0.1z" fill="#ffffff" id="svg_1"/>
 </g>
</svg>